PathFileType	4	(X/Y/Z)	DARI_DATA/Captury_Subj2_bilateral_squat03.trc
DataRate	CameraRate	NumFrames	NumMarkers	Units	OrigDataRate	OrigDataStartFrame	OrigNumFrames
60	60	4	47	mm	60.00239944458008	94	249
Frame#	Time		LeftUpLeg_		RightUpLeg_		LeftLeg_		RightLeg_		LeftFoot_		RightFoot_		LeftToeBase_		RightToeBase_		Knee_Lateral_r		Knee_Lateral_l		Ankle_Lateral_r		Ankle_Lateral_l		LeftArm_		LeftForeArm_		LeftHand_		LeftHandEE		RightArm_		RightForeArm_		RightHand_		RightHandEE		Spine_		Spine1_		Spine2_		Spine3_		Spine4_		Spine5_		Spine_x		Spine_y		Spine_z		RASI		LASI		RIPS		LIPS		RTHI		LTHI		RTIB		LTIB		RTOE		LTOE		RHEE		LHEE		RHipAngles		LHipAngles		RKneeAngles		LKneeAngles		RAnkleAngles		LAnkleAngles
			X1	Y1	Z1	X2	Y2	Z2	X3	Y3	Z3	X4	Y4	Z4	X5	Y5	Z5	X6	Y6	Z6	X7	Y7	Z7	X8	Y8	Z8	X9	Y9	Z9	X10	Y10	Z10	X11	Y11	Z11	X12	Y12	Z12	X13	Y13	Z13	X14	Y14	Z14	X15	Y15	Z15	X16	Y16	Z16	X17	Y17	Z17	X18	Y18	Z18	X19	Y19	Z19	X20	Y20	Z20	X21	Y21	Z21	X22	Y22	Z22	X23	Y23	Z23	X24	Y24	Z24	X25	Y25	Z25	X26	Y26	Z26	X27	Y27	Z27	X28	Y28	Z28	X29	Y29	Z29	X30	Y30	Z30	X31	Y31	Z31	X32	Y32	Z32	X33	Y33	Z33	X34	Y34	Z34	X35	Y35	Z35	X36	Y36	Z36	X37	Y37	Z37	X38	Y38	Z38	X39	Y39	Z39	X40	Y40	Z40	X41	Y41	Z41	X42	Y42	Z42	X43	Y43	Z43	X44	Y44	Z44	X45	Y45	Z45	X46	Y46	Z46	X47	Y47	Z47

94	1.55000	17.00676	831.85370	40.82305	185.53874	830.65112	49.86507	-33.53984	443.67435	-76.86171	238.24605	446.83902	-80.51159	-92.67244	78.49103	-2.81097	301.05344	84.10016	2.04017	-97.50340	21.44553	-118.20420	304.10971	21.86078	-110.69866	284.43411	452.62796	-86.37753	-79.70131	449.10574	-83.25515	349.43375	91.12496	14.82664	-141.34406	84.29726	9.47136	-37.36201	1321.71985	-6.62844	-97.03214	1310.22778	-262.66147	-78.31575	1336.04749	-486.14212	-70.24545	1347.92773	-567.26605	232.42505	1312.80591	-20.86334	273.18549	1302.09875	-280.61215	250.56616	1337.35791	-502.43573	242.85962	1356.89551	-582.09912	101.15506	924.89557	59.99289	102.86223	1019.23010	39.62815	102.95666	1088.13623	48.39022	102.52533	1172.35474	78.62593	102.52769	1303.81482	67.98693	-0.00000	0.00000	-0.00000	148.53276	924.55750	62.53479	101.60293	972.29651	57.94985	98.63020	926.95959	107.32773	249.07912	890.48700	-44.75920	-35.18709	892.51556	-60.01056	137.27357	897.42297	91.65314	61.46926	897.96393	87.58611	275.70715	659.52527	-16.22773	-72.13750	658.28644	-20.08974	302.30316	284.69525	-62.17940	-100.95311	224.71614	-56.08387	300.38535	18.68485	-183.15570	-93.41029	14.27714	-190.35571	313.12924	26.88083	57.68130	-111.48730	20.33119	49.90758	-19.24778	4.22154	-11.88010	-17.21105	4.81642	-6.16644	-25.46003	-2.07790	-0.02338	-22.24647	-2.22280	-0.04307	0.12311	3.98059	3.14406	-0.86360	3.89175	9.13250
95	1.56667	17.21799	825.59705	45.07920	185.77173	824.66364	53.73876	-35.28330	441.54697	-84.67828	240.55125	444.65302	-86.54289	-92.93941	77.90030	-2.36263	301.78915	83.29703	2.96011	-97.38092	21.51676	-118.09634	304.56653	21.88144	-110.23677	286.81393	450.61377	-91.59174	-81.54430	447.16489	-90.12046	349.95615	90.07436	16.65331	-141.35545	83.47572	10.99012	-37.73957	1313.78125	-9.76468	-96.72852	1303.96387	-266.02515	-78.24273	1330.35791	-489.45789	-70.04053	1341.94763	-570.61060	232.60768	1304.71277	-23.79766	273.30057	1295.82727	-283.62576	250.04549	1331.86316	-505.25870	242.25104	1351.31445	-584.93463	101.24575	918.72760	64.34689	102.79862	1012.58636	43.20261	102.86165	1081.31201	50.92432	102.46382	1165.86926	79.30394	102.43264	1296.69543	65.17918	-0.00000	0.00000	-0.00000	148.62958	918.46521	66.78127	101.60579	966.13531	62.44911	98.82389	920.64136	111.69342	248.99365	884.90283	-40.84297	-35.30926	886.47729	-55.44923	137.48367	891.22131	95.84098	61.66955	891.64111	91.94598	276.96982	655.46985	-15.82438	-72.92863	654.11847	-20.12312	304.26471	282.85114	-64.39075	-102.35027	223.09889	-58.19408	301.46423	19.32620	-182.74763	-93.52800	14.86173	-190.31021	312.09631	25.39960	58.25444	-110.51389	19.09781	50.07034	-20.64307	4.36022	-10.95931	-18.89970	5.21400	-5.42168	-27.96884	-2.37312	-0.06957	-25.25865	-2.53799	-0.06453	-1.34390	3.38401	2.12175	-2.46160	2.91288	8.40844
96	1.58333	17.28866	818.62604	49.37614	185.83490	817.87677	58.19791	-37.46452	439.18588	-92.45170	241.91895	442.37219	-93.25749	-93.74921	77.31049	-1.80264	302.94769	82.92331	3.75282	-97.08444	21.39957	-117.80252	305.11560	22.17143	-109.81494	288.22760	448.47049	-97.68204	-83.79285	445.00940	-97.03764	350.91943	89.63700	18.14494	-141.90894	82.71326	12.51328	-38.00676	1305.41138	-13.21911	-96.08298	1297.06628	-269.74014	-77.76189	1324.18347	-493.09985	-70.16424	1336.26379	-574.23987	232.63287	1296.36096	-26.58169	273.04272	1288.99866	-286.50159	249.69281	1325.96643	-507.97107	242.03142	1345.57056	-587.62250	101.25027	912.00610	67.70128	102.77242	1005.34930	45.27911	102.77910	1073.96887	51.94555	102.27397	1158.78223	78.87664	102.14066	1289.11145	62.36862	-0.00000	0.00000	-0.00000	148.63199	911.79547	70.18126	101.58733	959.39044	65.28601	98.78430	914.43567	115.02187	249.11153	877.11267	-36.97903	-35.17876	878.37646	-51.85889	137.47382	884.86475	99.52677	61.66308	885.20172	95.55881	277.67801	650.88623	-15.70520	-73.96061	649.48724	-20.25366	305.81635	281.23093	-67.16933	-104.18672	221.39886	-60.26584	302.31558	20.17055	-182.35553	-93.05688	15.21360	-190.04858	311.88538	24.49791	58.72919	-110.26338	17.94742	50.34256	-23.04000	4.36102	-10.45958	-21.39932	5.68100	-4.64809	-30.81307	-2.44725	-0.08970	-28.32085	-2.83898	-0.09512	-2.84970	2.75813	1.05500	-4.01801	1.72709	7.54664
97	1.60000	18.78735	810.89008	55.28432	187.39915	811.20770	62.78003	-40.65282	437.36865	-99.75250	244.48561	440.01059	-98.59425	-94.14954	77.11063	-1.30834	303.77856	82.06146	4.82580	-97.89880	21.85866	-117.61092	305.08737	22.21539	-109.23497	290.83398	446.18628	-102.46041	-87.09083	443.36996	-102.71109	351.58148	88.49892	19.89021	-141.78029	82.37878	14.72453	-38.79733	1295.71924	-18.31159	-95.47403	1289.66870	-275.20969	-77.33876	1318.11633	-498.41901	-69.89620	1330.15808	-579.57916	232.42966	1287.94153	-28.99124	272.56421	1281.99658	-288.99005	249.37296	1319.47876	-510.38971	242.12582	1339.59229	-589.95282	102.34296	904.94629	71.93036	103.15403	997.63678	48.05743	102.76669	1066.06970	53.46624	101.75887	1151.13794	78.58943	100.87933	1280.74536	59.04999	-0.00000	0.00000	-0.00000	149.74310	905.03558	74.03755	102.38409	952.30261	68.99850	100.23428	907.87708	119.23982	249.57956	869.76648	-33.53166	-34.82128	869.23071	-46.17483	138.97319	878.36237	103.76091	63.13297	878.21954	100.38940	279.74054	646.25232	-14.97253	-74.71331	644.64447	-18.21860	307.85995	279.25360	-69.08414	-106.49692	220.27005	-61.65127	302.55081	20.89000	-181.80072	-94.65334	16.24078	-189.94269	311.19055	23.00122	59.34883	-108.90190	17.13132	50.65955	-25.25986	4.23618	-9.43125	-24.20426	6.58695	-3.63024	-33.30674	-2.66506	-0.08374	-31.52644	-3.01716	-0.14725	-4.30367	2.14817	0.01671	-5.45900	0.39152	6.59498
